<svg version="1.1"
      xmlns="http://www.w3.org/2000/svg"
      xmlns:xlink="http://www.w3.org/1999/xlink"  id="snapshot-88772" width="250" height="250" viewBox="0 0 250 250"><desc>This image was made on Patterninja.com</desc><defs>
<!-- image 25364 -->
<g id="transformed-25364" data-image="25364" transform="translate(-24.515301344262525, -24.51530134426251) rotate(348, 24.515301344262525, 24.51530134426251)"><g><svg version="1.1" width="49.03060268852505px" height="49.03060268852502px" viewBox="0 0 49.03060268852505 49.03060268852502"><g id="original-25364"><svg xmlns="http://www.w3.org/2000/svg" id="_x32_" viewBox="0 0 512 512" xmlns:xlink="http://www.w3.org/1999/xlink" version="1.1" preserveAspectRatio="xMidYMid meet">
  <path d="M501.553 219.44a21.064 21.064 0 0 0-21.787-4.379l-45.01 16.794c.07-.233.14-.473.209-.699a120.74 120.74 0 0 0 11.026-50.499c0-66.914-54.25-121.164-121.164-121.164-50.997 0-93.165 37.696-109.548 69.965-3.408 6.717-20.289 21.251-39.117 9.356-18.829-11.887-31.237-33.341-44.599-54.514-17.843-28.246-51.059-19.535-62.441 8.922C42.36 160.12-38.173 202.661 21.551 207.693c35.677 3.012 60.95-16.352 71.355-23.782 10.412-7.431-2.974 26.764 17.842 31.22 20.133 4.309 22.462-20.941 41.066 5.854-24.528 40.134-65.408 65.408-105.922 92.777-41.889 28.301-50.57 56.121 20.436 43.9 30.77-5.303 33.644 1.7 19.574 9.48-13.3 7.36-45.29 20.381-65.283 26.888-19.085 6.219-14.264 36.85 32.843 32.502 36.633-3.378 70.718-4.123 95.223-12.105 19.986-6.506 26.919-.683.155 10.218-59.684 24.318 13.386 53.52 137.337-12.78 46.742-25.002 78.708-52.728 102.909-85.882 4.092 4.79 10.218 7.376 19.326 2.633 22.688-11.81 32.378.497 16.514 14.364-18.611 16.29-16.918 54.918 35.104 21.438C512.059 330.93 510.887 251.5 510.887 251.5c3.967-17.455-3.495-26.571-9.334-32.06zm-216.922-59.452s14.45 28.906 31.314 38.542c-40.949 24.077-57.806-19.271-31.314-38.542zm63.412 51.105c19.023-3.897 49.063-13.378 49.063-13.378 8.922 24.528-24.527 55.748-49.063 13.378z" fill="rgba(0, 0, 0, 1)" stroke="none"/>
</svg>
</g></svg></g></g>
<!-- /image 25364 -->

<!-- image 44229 -->
<g id="transformed-44229" data-image="44229" transform="translate(19.850373136637348, 39.85037313663733) rotate(5, 30.149626863362652, 30.14962686336267)"><g><svg version="1.1" width="60.299253726725304px" height="60.29925372672534px" viewBox="0 0 60.299253726725304 60.29925372672534"><g id="original-44229"><svg xmlns="http://www.w3.org/2000/svg" id="_x32_" viewBox="0 0 512 512" xmlns:xlink="http://www.w3.org/1999/xlink" version="1.1" preserveAspectRatio="xMidYMid meet">
  <path d="M507.88 226.131c-2.409-4.385-5.453-7.588-7.942-9.942a26.673 26.673 0 0 0-18.261-7.219c-3.132 0-6.288.554-9.323 1.678l-.225.088-.208.097s-.113.056-.37.16a521.398 521.398 0 0 1-19.12 8.239c-4.064 1.646-8.199 3.228-11.756 4.433 1.084-2.674 2.248-5.975 3.332-10.062 1.502-5.653 2.875-12.801 3.831-21.907.417-4.047.626-8.046.626-12.005.008-16.744-3.686-32.604-10.206-46.905-9.797-21.457-25.906-39.422-45.548-52.046-19.651-12.623-42.874-19.939-66.942-19.939-13.049 0-25.496 2.409-37.044 6.512-17.337 6.152-32.651 16.069-45.219 27.48-12.559 11.42-22.388 24.308-28.708 36.739-.2.41-.899 1.461-1.951 2.562-1.574 1.686-3.935 3.59-6.665 4.971-2.731 1.397-5.798 2.288-9.035 2.288-3.252-.016-6.754-.843-10.761-3.364-8.102-5.108-15.105-12.488-21.682-21.265-6.577-8.753-12.696-18.855-19.161-29.094-4.103-6.504-9.138-11.45-14.727-14.743-5.59-3.284-11.708-4.891-17.747-4.883-8.215 0-16.214 2.9-22.991 7.982-6.77 5.083-12.35 12.351-15.916 21.256-4.819 12.054-10.4 24.364-16.912 34.94-6.496 10.584-13.956 19.345-22.139 24.581-11.355 7.3-19.884 14.551-25.778 21.706-2.947 3.574-5.236 7.14-6.834 10.729C.908 192.797 0 196.459 0 200.105c-.008 3.453.86 6.882 2.538 9.876 1.253 2.249 2.939 4.241 4.931 5.935 2.987 2.554 6.634 4.473 10.801 5.886 4.184 1.405 8.906 2.322 14.19 2.771 1.903.16 3.774.224 5.63.224 8.776 0 16.944-1.718 24.339-4.36 11.114-3.959 20.518-9.966 28.042-15.538 3.758-2.795 7.042-5.477 9.805-7.758.546-.457 1.06-.883 1.574-1.301.248 2.41.489 5.292.835 8.352.313 2.746.723 5.638 1.349 8.504.49 2.16 1.1 4.305 1.935 6.4a25.229 25.229 0 0 0 2.345 4.593c1.446 2.192 3.381 4.273 5.926 5.758 2.521 1.502 5.581 2.305 8.721 2.289 4.666-.008 8.802-.611 12.456-1.157 3.653-.546 6.826-1.003 9.58-.996 2 0 3.774.217 5.566.763.289.08.578.185.868.297-.402.377-.78.787-1.085 1.285v-.008c-14.358 23.24-32.234 37.703-49.62 48.447-8.689 5.365-17.249 9.773-25.15 13.844-7.918 4.08-15.178 7.782-21.361 11.949-9.829 6.649-17.907 13.298-23.778 19.73-2.932 3.228-5.316 6.401-7.075 9.628-.883 1.622-1.598 3.269-2.112 4.963-.506 1.702-.827 3.469-.827 5.284 0 1.382.185 2.795.595 4.168.691 2.408 2.112 4.634 3.943 6.351 1.365 1.285 2.956 2.329 4.666 3.164 2.577 1.26 5.485 2.096 8.784 2.658 3.284.547 6.979.812 11.155.812 7.829 0 17.37-.94 28.973-2.932 4.866-.843 8.906-1.324 12.15-1.542-2.658 1.373-5.934 2.947-9.596 4.61-14.647 6.673-35.486 14.856-49.546 19.426-4.313 1.405-7.967 3.903-10.52 7.179-2.562 3.26-3.983 7.316-3.975 11.452 0 3.429.964 6.89 2.794 10.014 2.746 4.705 7.364 8.616 13.516 11.307 6.159 2.682 13.884 4.208 23.303 4.208 2.851 0 5.847-.136 9.01-.418 17.458-1.614 34.434-2.61 50.15-4.168 8.994-.9 17.57-1.992 25.608-3.51-1.55 1.004-2.971 2.024-4.248 3.084-2.056 1.735-3.766 3.566-5.067 5.662-1.284 2.088-2.168 4.545-2.168 7.195a11.722 11.722 0 0 0 .988 4.73 13.236 13.236 0 0 0 2.2 3.421c1.549 1.742 3.396 3.028 5.444 4.088 3.091 1.574 6.657 2.642 10.808 3.372 4.144.731 8.866 1.1 14.174 1.1 14.038-.007 32.226-2.61 53.86-8.865 21.633-6.264 46.68-16.197 74.24-30.941 22.782-12.182 42.079-25.094 58.662-39.06 14.752-12.431 27.335-25.689 38.329-39.96.056.032.096.057.136.081a18.272 18.272 0 0 0 8.649 2.144c3.758 0 7.644-1.084 11.587-3.14 2.754-1.437 5.204-2.409 7.268-3.011 2.08-.602 3.758-.827 4.962-.827.78 0 1.333.096 1.671.192a3.146 3.146 0 0 1-.065.298c-.201.602-.65 1.558-1.493 2.698-.836 1.149-2.048 2.489-3.67 3.919-3.943 3.461-7.018 7.652-9.17 12.086-2.145 4.457-3.397 9.155-3.414 13.852 0 2.288.314 4.577 1.044 6.801a17.426 17.426 0 0 0 2.433 4.77c1.614 2.232 3.887 4.103 6.553 5.292 2.658 1.205 5.653 1.767 8.841 1.767 4.609-.008 9.661-1.117 15.442-3.348 5.773-2.241 12.279-5.622 19.698-10.392 12.904-8.312 22.581-19.313 29.808-31.054 10.817-17.651 16.238-36.979 19.04-52.527 2.738-15.201 2.947-26.781 2.947-29.68.723-3.381 1.076-6.585 1.076-9.557.018-6.621-1.693-12.218-4.118-16.603zm-9.644 24.124l-.168.747.007.771v.321c.008 2.666-.256 21.506-6.255 43.034-2.996 10.777-7.412 22.204-13.844 32.644-6.416 10.448-14.8 19.883-25.802 26.966-6.858 4.424-12.656 7.396-17.386 9.219-4.714 1.839-8.352 2.498-10.8 2.489-1.518 0-2.578-.241-3.292-.522a3.968 3.968 0 0 1-1.196-.691c-.426-.378-.755-.827-1.044-1.558-.281-.731-.482-1.759-.482-3.011-.008-2.289.691-5.308 2.12-8.255 1.422-2.947 3.542-5.814 6.063-8.007 2.988-2.617 5.308-5.292 6.979-8.086.827-1.406 1.501-2.834 1.975-4.32.465-1.485.746-3.027.746-4.617 0-1.766-.369-3.613-1.164-5.292a11.701 11.701 0 0 0-2.417-3.373c-1.486-1.446-3.284-2.442-5.148-3.06-1.879-.618-3.838-.875-5.87-.883-2.69.008-5.524.466-8.552 1.341-3.011.875-6.223 2.176-9.612 3.943-2.554 1.333-4.385 1.686-5.653 1.686-.442 0-.82-.048-1.181-.121 1.55-2.417 3.51-5.557 5.709-9.266 5.196-8.769 11.677-20.615 16.848-33.19 1.365-3.284-.209-7.034-3.493-8.384-3.285-1.357-7.027.209-8.393 3.493-4.81 11.708-11.025 23.112-16.02 31.519a279.24 279.24 0 0 1-6.248 10.078 128.423 128.423 0 0 1-1.822 2.762 28.34 28.34 0 0 1-.475.716l-.096.136c-11.331 15.506-24.436 29.704-40.224 43.018-15.812 13.314-34.322 25.729-56.445 37.566-26.822 14.334-51.065 23.93-71.751 29.913-20.678 5.99-37.839 8.367-50.286 8.36-4.095 0-7.669-.249-10.656-.699-2.248-.322-4.168-.763-5.701-1.245-2.313-.723-3.742-1.606-4.248-2.08l-.032-.04c.096-.184.256-.45.514-.779.787-1.028 2.449-2.57 5.067-4.232 2.618-1.67 6.159-3.485 10.632-5.308 6.207-2.538 10.721-4.818 14.02-7.002 1.655-1.108 3.02-2.177 4.224-3.501a10.748 10.748 0 0 0 1.67-2.393c.49-.955.94-2.217.94-3.774a7.574 7.574 0 0 0-.442-2.561c-.53-1.494-1.534-2.691-2.49-3.437a8.703 8.703 0 0 0-2.095-1.22c-.996-.41-1.896-.611-2.778-.748a19.202 19.202 0 0 0-2.618-.184c-2.08.008-4.296.273-6.794.755-2.481.497-5.227 1.22-8.206 2.184-10.994 3.598-24.678 5.67-40.015 7.195-15.346 1.518-32.331 2.506-50.062 4.144a85.654 85.654 0 0 1-7.83.378c-5.356 0-9.804-.586-13.394-1.518-5.396-1.397-8.825-3.566-10.793-5.613-.988-1.044-1.614-2.039-2.007-2.971-.402-.923-.562-1.783-.562-2.578.016-1.277.394-2.442 1.245-3.549.876-1.1 2.241-2.16 4.369-2.859 9.836-3.196 22.405-7.926 34.226-12.768 5.894-2.425 11.604-4.875 16.67-7.187 5.075-2.305 9.5-4.457 12.938-6.36 2.834-1.582 5.171-3.156 7.114-4.986.964-.94 1.83-1.944 2.594-3.204.369-.634.707-1.341.964-2.152a8.965 8.965 0 0 0 .434-2.722 8.365 8.365 0 0 0-.61-3.149 8.742 8.742 0 0 0-1.405-2.336c-.996-1.164-2.112-1.919-3.196-2.465-1.63-.82-3.252-1.237-5.01-1.526-1.767-.273-3.678-.393-5.83-.393-4.722.007-10.616.594-18.052 1.871-11.09 1.911-19.996 2.746-26.789 2.746-3.678 0-6.738-.249-9.146-.667-1.8-.305-3.245-.715-4.313-1.132-.802-.321-1.389-.642-1.798-.915-.61-.426-.779-.699-.883-.851-.08-.168-.136-.297-.145-.739 0-.337.064-.867.273-1.566.369-1.229 1.205-2.963 2.61-4.979 2.088-3.019 5.372-6.624 9.652-10.439 4.272-3.83 9.548-7.878 15.595-11.973 5.204-3.518 12.134-7.107 20.044-11.17 11.869-6.111 25.954-13.338 40.015-23.786 14.053-10.456 28.106-24.187 39.822-43.171.096-.153.152-.33.225-.482.265.289.53.586.795.9 2.819 3.308 5.95 7.774 9.364 13.7 1.774 3.067 5.701 4.12 8.784 2.352 3.068-1.774 4.12-5.701 2.346-8.785-3.293-5.71-6.449-10.376-9.556-14.214-4.657-5.75-9.283-9.684-14.109-12.15a29.983 29.983 0 0 0-7.212-2.578c-2.384-.514-4.706-.698-6.93-.698-4.103.008-7.869.618-11.467 1.14-3.598.546-7.035 1.012-10.568 1.012-.626 0-1.076-.08-1.445-.185-.667-.209-1.117-.482-1.719-1.108-.506-.547-1.076-1.398-1.606-2.562-.923-2.031-1.671-4.946-2.176-8.143-.386-2.401-.666-4.954-.907-7.46-.185-1.887-.354-3.726-.538-5.509-.152-1.325-.305-2.602-.514-3.839a32.67 32.67 0 0 0-.602-2.762 16.426 16.426 0 0 0-.723-2.104c-.474-1.068-1.108-2.281-2.393-3.486-.65-.586-1.47-1.164-2.433-1.558a7.817 7.817 0 0 0-3.052-.603 8.804 8.804 0 0 0-3.26.643c-.916.378-1.67.826-2.353 1.316-1.422 1.012-2.9 2.209-4.553 3.558-2.883 2.377-6.272 5.236-10.174 8.215-5.846 4.465-12.833 9.179-20.662 12.72-7.838 3.55-16.462 5.935-25.761 5.935-1.494 0-3.012-.056-4.554-.192-3.95-.33-7.348-.964-10.126-1.808-4.2-1.26-6.93-2.979-8.448-4.609-.763-.827-1.262-1.614-1.598-2.45-.329-.826-.498-1.71-.506-2.786 0-1.502.378-3.405 1.397-5.686 1.502-3.437 4.449-7.653 9.067-12.223 4.594-4.594 10.817-9.548 18.735-14.615 10.584-6.834 19.016-17.113 26.138-28.661 7.115-11.563 12.929-24.484 17.892-36.907 2.738-6.842 6.938-12.166 11.708-15.748 4.786-3.581 10.102-5.404 15.274-5.404 3.806.008 7.572.964 11.227 3.108 3.654 2.152 7.219 5.517 10.384 10.52 6.375 10.102 12.631 20.47 19.746 29.954 7.107 9.476 15.105 18.101 25.095 24.42 5.886 3.727 11.997 5.357 17.626 5.34 3.742 0 7.244-.682 10.392-1.774 4.746-1.646 8.697-4.159 11.829-6.818a35.268 35.268 0 0 0 4.063-4.071c1.14-1.382 2.08-2.73 2.827-4.184 3.662-7.211 8.857-14.88 15.306-22.26 9.677-11.082 22.187-21.513 36.538-29.094 14.342-7.589 30.498-12.351 47.668-12.351 28.596-.007 56.164 11.645 76.498 30.781 10.158 9.572 18.494 20.984 24.292 33.688 5.797 12.712 9.05 26.708 9.05 41.573 0 3.509-.177 7.066-.554 10.672-1.518 14.543-4.112 23.072-6.216 28.283-1.052 2.618-1.975 4.392-2.762 5.902-.402.772-.771 1.47-1.149 2.346-.184.433-.369.923-.538 1.542a8.677 8.677 0 0 0-.305 2.256c0 .731.104 1.574.369 2.393.386 1.237 1.14 2.329 1.863 3.052a9.077 9.077 0 0 0 2.04 1.558l.626.361.682.209c1.181.361 2.096.41 2.931.418 1.012 0 1.912-.113 2.843-.265 1.727-.281 3.534-.748 5.501-1.334 3.437-1.02 7.364-2.433 11.371-3.982 11.018-4.248 22.734-9.573 24.669-10.456a13.796 13.796 0 0 1 14.158 2.924c2.016 1.886 3.999 4.055 5.476 6.753 1.47 2.706 2.521 5.919 2.53 10.415-.009 2.164-.266 4.662-.916 7.513z" fill="rgba(0, 0, 0, 1)" stroke="none"/>
  <path d="M294 181.491c-21.875 15.908-7.95 51.691 25.834 31.808-13.91-7.95-25.834-31.808-25.834-31.808z" fill="rgba(0, 0, 0, 1)" stroke="none"/>
  <path d="M346.334 223.674c20.244 34.964 47.861 9.202 40.489-11.042-.001 0-24.79 7.822-40.489 11.042z" fill="rgba(0, 0, 0, 1)" stroke="none"/>
</svg>
</g></svg></g></g>
<!-- /image 44229 -->

<!-- image 73377 -->
<g id="transformed-73377" data-image="73377" transform="translate(205.97620395837137, 75.97620395837136) rotate(357, 21.02379604162863, 21.02379604162864)"><g><svg version="1.1" width="42.04759208325726px" height="42.04759208325728px" viewBox="0 0 42.04759208325726 42.04759208325728"><g id="original-73377"><svg xmlns="http://www.w3.org/2000/svg" id="_x32_" viewBox="0 0 512 512" xmlns:xlink="http://www.w3.org/1999/xlink" version="1.1" preserveAspectRatio="xMidYMid meet">
  <path d="M501.553 219.44a21.064 21.064 0 0 0-21.787-4.379l-45.01 16.794c.07-.233.14-.473.209-.699a120.74 120.74 0 0 0 11.026-50.499c0-66.914-54.25-121.164-121.164-121.164-50.997 0-93.165 37.696-109.548 69.965-3.408 6.717-20.289 21.251-39.117 9.356-18.829-11.887-31.237-33.341-44.599-54.514-17.843-28.246-51.059-19.535-62.441 8.922C42.36 160.12-38.173 202.661 21.551 207.693c35.677 3.012 60.95-16.352 71.355-23.782 10.412-7.431-2.974 26.764 17.842 31.22 20.133 4.309 22.462-20.941 41.066 5.854-24.528 40.134-65.408 65.408-105.922 92.777-41.889 28.301-50.57 56.121 20.436 43.9 30.77-5.303 33.644 1.7 19.574 9.48-13.3 7.36-45.29 20.381-65.283 26.888-19.085 6.219-14.264 36.85 32.843 32.502 36.633-3.378 70.718-4.123 95.223-12.105 19.986-6.506 26.919-.683.155 10.218-59.684 24.318 13.386 53.52 137.337-12.78 46.742-25.002 78.708-52.728 102.909-85.882 4.092 4.79 10.218 7.376 19.326 2.633 22.688-11.81 32.378.497 16.514 14.364-18.611 16.29-16.918 54.918 35.104 21.438C512.059 330.93 510.887 251.5 510.887 251.5c3.967-17.455-3.495-26.571-9.334-32.06zm-216.922-59.452s14.45 28.906 31.314 38.542c-40.949 24.077-57.806-19.271-31.314-38.542zm63.412 51.105c19.023-3.897 49.063-13.378 49.063-13.378 8.922 24.528-24.527 55.748-49.063 13.378z" fill="rgba(0, 0, 0, 1)" stroke="none"/>
</svg>
</g></svg></g></g>
<!-- /image 73377 -->

<!-- image 36156 -->
<g id="transformed-36156" data-image="36156" transform="translate(130.5861873485089, -17.413812651491085) rotate(332, 30.4138126514911, 30.413812651491085)"><g><svg version="1.1" width="60.8276253029822px" height="60.82762530298217px" viewBox="0 0 60.8276253029822 60.82762530298217"><g id="original-36156"><svg xmlns="http://www.w3.org/2000/svg" id="_x32_" viewBox="0 0 512 512" xmlns:xlink="http://www.w3.org/1999/xlink" version="1.1" preserveAspectRatio="xMidYMid meet">
  <path d="M507.88 226.131c-2.409-4.385-5.453-7.588-7.942-9.942a26.673 26.673 0 0 0-18.261-7.219c-3.132 0-6.288.554-9.323 1.678l-.225.088-.208.097s-.113.056-.37.16a521.398 521.398 0 0 1-19.12 8.239c-4.064 1.646-8.199 3.228-11.756 4.433 1.084-2.674 2.248-5.975 3.332-10.062 1.502-5.653 2.875-12.801 3.831-21.907.417-4.047.626-8.046.626-12.005.008-16.744-3.686-32.604-10.206-46.905-9.797-21.457-25.906-39.422-45.548-52.046-19.651-12.623-42.874-19.939-66.942-19.939-13.049 0-25.496 2.409-37.044 6.512-17.337 6.152-32.651 16.069-45.219 27.48-12.559 11.42-22.388 24.308-28.708 36.739-.2.41-.899 1.461-1.951 2.562-1.574 1.686-3.935 3.59-6.665 4.971-2.731 1.397-5.798 2.288-9.035 2.288-3.252-.016-6.754-.843-10.761-3.364-8.102-5.108-15.105-12.488-21.682-21.265-6.577-8.753-12.696-18.855-19.161-29.094-4.103-6.504-9.138-11.45-14.727-14.743-5.59-3.284-11.708-4.891-17.747-4.883-8.215 0-16.214 2.9-22.991 7.982-6.77 5.083-12.35 12.351-15.916 21.256-4.819 12.054-10.4 24.364-16.912 34.94-6.496 10.584-13.956 19.345-22.139 24.581-11.355 7.3-19.884 14.551-25.778 21.706-2.947 3.574-5.236 7.14-6.834 10.729C.908 192.797 0 196.459 0 200.105c-.008 3.453.86 6.882 2.538 9.876 1.253 2.249 2.939 4.241 4.931 5.935 2.987 2.554 6.634 4.473 10.801 5.886 4.184 1.405 8.906 2.322 14.19 2.771 1.903.16 3.774.224 5.63.224 8.776 0 16.944-1.718 24.339-4.36 11.114-3.959 20.518-9.966 28.042-15.538 3.758-2.795 7.042-5.477 9.805-7.758.546-.457 1.06-.883 1.574-1.301.248 2.41.489 5.292.835 8.352.313 2.746.723 5.638 1.349 8.504.49 2.16 1.1 4.305 1.935 6.4a25.229 25.229 0 0 0 2.345 4.593c1.446 2.192 3.381 4.273 5.926 5.758 2.521 1.502 5.581 2.305 8.721 2.289 4.666-.008 8.802-.611 12.456-1.157 3.653-.546 6.826-1.003 9.58-.996 2 0 3.774.217 5.566.763.289.08.578.185.868.297-.402.377-.78.787-1.085 1.285v-.008c-14.358 23.24-32.234 37.703-49.62 48.447-8.689 5.365-17.249 9.773-25.15 13.844-7.918 4.08-15.178 7.782-21.361 11.949-9.829 6.649-17.907 13.298-23.778 19.73-2.932 3.228-5.316 6.401-7.075 9.628-.883 1.622-1.598 3.269-2.112 4.963-.506 1.702-.827 3.469-.827 5.284 0 1.382.185 2.795.595 4.168.691 2.408 2.112 4.634 3.943 6.351 1.365 1.285 2.956 2.329 4.666 3.164 2.577 1.26 5.485 2.096 8.784 2.658 3.284.547 6.979.812 11.155.812 7.829 0 17.37-.94 28.973-2.932 4.866-.843 8.906-1.324 12.15-1.542-2.658 1.373-5.934 2.947-9.596 4.61-14.647 6.673-35.486 14.856-49.546 19.426-4.313 1.405-7.967 3.903-10.52 7.179-2.562 3.26-3.983 7.316-3.975 11.452 0 3.429.964 6.89 2.794 10.014 2.746 4.705 7.364 8.616 13.516 11.307 6.159 2.682 13.884 4.208 23.303 4.208 2.851 0 5.847-.136 9.01-.418 17.458-1.614 34.434-2.61 50.15-4.168 8.994-.9 17.57-1.992 25.608-3.51-1.55 1.004-2.971 2.024-4.248 3.084-2.056 1.735-3.766 3.566-5.067 5.662-1.284 2.088-2.168 4.545-2.168 7.195a11.722 11.722 0 0 0 .988 4.73 13.236 13.236 0 0 0 2.2 3.421c1.549 1.742 3.396 3.028 5.444 4.088 3.091 1.574 6.657 2.642 10.808 3.372 4.144.731 8.866 1.1 14.174 1.1 14.038-.007 32.226-2.61 53.86-8.865 21.633-6.264 46.68-16.197 74.24-30.941 22.782-12.182 42.079-25.094 58.662-39.06 14.752-12.431 27.335-25.689 38.329-39.96.056.032.096.057.136.081a18.272 18.272 0 0 0 8.649 2.144c3.758 0 7.644-1.084 11.587-3.14 2.754-1.437 5.204-2.409 7.268-3.011 2.08-.602 3.758-.827 4.962-.827.78 0 1.333.096 1.671.192a3.146 3.146 0 0 1-.065.298c-.201.602-.65 1.558-1.493 2.698-.836 1.149-2.048 2.489-3.67 3.919-3.943 3.461-7.018 7.652-9.17 12.086-2.145 4.457-3.397 9.155-3.414 13.852 0 2.288.314 4.577 1.044 6.801a17.426 17.426 0 0 0 2.433 4.77c1.614 2.232 3.887 4.103 6.553 5.292 2.658 1.205 5.653 1.767 8.841 1.767 4.609-.008 9.661-1.117 15.442-3.348 5.773-2.241 12.279-5.622 19.698-10.392 12.904-8.312 22.581-19.313 29.808-31.054 10.817-17.651 16.238-36.979 19.04-52.527 2.738-15.201 2.947-26.781 2.947-29.68.723-3.381 1.076-6.585 1.076-9.557.018-6.621-1.693-12.218-4.118-16.603zm-9.644 24.124l-.168.747.007.771v.321c.008 2.666-.256 21.506-6.255 43.034-2.996 10.777-7.412 22.204-13.844 32.644-6.416 10.448-14.8 19.883-25.802 26.966-6.858 4.424-12.656 7.396-17.386 9.219-4.714 1.839-8.352 2.498-10.8 2.489-1.518 0-2.578-.241-3.292-.522a3.968 3.968 0 0 1-1.196-.691c-.426-.378-.755-.827-1.044-1.558-.281-.731-.482-1.759-.482-3.011-.008-2.289.691-5.308 2.12-8.255 1.422-2.947 3.542-5.814 6.063-8.007 2.988-2.617 5.308-5.292 6.979-8.086.827-1.406 1.501-2.834 1.975-4.32.465-1.485.746-3.027.746-4.617 0-1.766-.369-3.613-1.164-5.292a11.701 11.701 0 0 0-2.417-3.373c-1.486-1.446-3.284-2.442-5.148-3.06-1.879-.618-3.838-.875-5.87-.883-2.69.008-5.524.466-8.552 1.341-3.011.875-6.223 2.176-9.612 3.943-2.554 1.333-4.385 1.686-5.653 1.686-.442 0-.82-.048-1.181-.121 1.55-2.417 3.51-5.557 5.709-9.266 5.196-8.769 11.677-20.615 16.848-33.19 1.365-3.284-.209-7.034-3.493-8.384-3.285-1.357-7.027.209-8.393 3.493-4.81 11.708-11.025 23.112-16.02 31.519a279.24 279.24 0 0 1-6.248 10.078 128.423 128.423 0 0 1-1.822 2.762 28.34 28.34 0 0 1-.475.716l-.096.136c-11.331 15.506-24.436 29.704-40.224 43.018-15.812 13.314-34.322 25.729-56.445 37.566-26.822 14.334-51.065 23.93-71.751 29.913-20.678 5.99-37.839 8.367-50.286 8.36-4.095 0-7.669-.249-10.656-.699-2.248-.322-4.168-.763-5.701-1.245-2.313-.723-3.742-1.606-4.248-2.08l-.032-.04c.096-.184.256-.45.514-.779.787-1.028 2.449-2.57 5.067-4.232 2.618-1.67 6.159-3.485 10.632-5.308 6.207-2.538 10.721-4.818 14.02-7.002 1.655-1.108 3.02-2.177 4.224-3.501a10.748 10.748 0 0 0 1.67-2.393c.49-.955.94-2.217.94-3.774a7.574 7.574 0 0 0-.442-2.561c-.53-1.494-1.534-2.691-2.49-3.437a8.703 8.703 0 0 0-2.095-1.22c-.996-.41-1.896-.611-2.778-.748a19.202 19.202 0 0 0-2.618-.184c-2.08.008-4.296.273-6.794.755-2.481.497-5.227 1.22-8.206 2.184-10.994 3.598-24.678 5.67-40.015 7.195-15.346 1.518-32.331 2.506-50.062 4.144a85.654 85.654 0 0 1-7.83.378c-5.356 0-9.804-.586-13.394-1.518-5.396-1.397-8.825-3.566-10.793-5.613-.988-1.044-1.614-2.039-2.007-2.971-.402-.923-.562-1.783-.562-2.578.016-1.277.394-2.442 1.245-3.549.876-1.1 2.241-2.16 4.369-2.859 9.836-3.196 22.405-7.926 34.226-12.768 5.894-2.425 11.604-4.875 16.67-7.187 5.075-2.305 9.5-4.457 12.938-6.36 2.834-1.582 5.171-3.156 7.114-4.986.964-.94 1.83-1.944 2.594-3.204.369-.634.707-1.341.964-2.152a8.965 8.965 0 0 0 .434-2.722 8.365 8.365 0 0 0-.61-3.149 8.742 8.742 0 0 0-1.405-2.336c-.996-1.164-2.112-1.919-3.196-2.465-1.63-.82-3.252-1.237-5.01-1.526-1.767-.273-3.678-.393-5.83-.393-4.722.007-10.616.594-18.052 1.871-11.09 1.911-19.996 2.746-26.789 2.746-3.678 0-6.738-.249-9.146-.667-1.8-.305-3.245-.715-4.313-1.132-.802-.321-1.389-.642-1.798-.915-.61-.426-.779-.699-.883-.851-.08-.168-.136-.297-.145-.739 0-.337.064-.867.273-1.566.369-1.229 1.205-2.963 2.61-4.979 2.088-3.019 5.372-6.624 9.652-10.439 4.272-3.83 9.548-7.878 15.595-11.973 5.204-3.518 12.134-7.107 20.044-11.17 11.869-6.111 25.954-13.338 40.015-23.786 14.053-10.456 28.106-24.187 39.822-43.171.096-.153.152-.33.225-.482.265.289.53.586.795.9 2.819 3.308 5.95 7.774 9.364 13.7 1.774 3.067 5.701 4.12 8.784 2.352 3.068-1.774 4.12-5.701 2.346-8.785-3.293-5.71-6.449-10.376-9.556-14.214-4.657-5.75-9.283-9.684-14.109-12.15a29.983 29.983 0 0 0-7.212-2.578c-2.384-.514-4.706-.698-6.93-.698-4.103.008-7.869.618-11.467 1.14-3.598.546-7.035 1.012-10.568 1.012-.626 0-1.076-.08-1.445-.185-.667-.209-1.117-.482-1.719-1.108-.506-.547-1.076-1.398-1.606-2.562-.923-2.031-1.671-4.946-2.176-8.143-.386-2.401-.666-4.954-.907-7.46-.185-1.887-.354-3.726-.538-5.509-.152-1.325-.305-2.602-.514-3.839a32.67 32.67 0 0 0-.602-2.762 16.426 16.426 0 0 0-.723-2.104c-.474-1.068-1.108-2.281-2.393-3.486-.65-.586-1.47-1.164-2.433-1.558a7.817 7.817 0 0 0-3.052-.603 8.804 8.804 0 0 0-3.26.643c-.916.378-1.67.826-2.353 1.316-1.422 1.012-2.9 2.209-4.553 3.558-2.883 2.377-6.272 5.236-10.174 8.215-5.846 4.465-12.833 9.179-20.662 12.72-7.838 3.55-16.462 5.935-25.761 5.935-1.494 0-3.012-.056-4.554-.192-3.95-.33-7.348-.964-10.126-1.808-4.2-1.26-6.93-2.979-8.448-4.609-.763-.827-1.262-1.614-1.598-2.45-.329-.826-.498-1.71-.506-2.786 0-1.502.378-3.405 1.397-5.686 1.502-3.437 4.449-7.653 9.067-12.223 4.594-4.594 10.817-9.548 18.735-14.615 10.584-6.834 19.016-17.113 26.138-28.661 7.115-11.563 12.929-24.484 17.892-36.907 2.738-6.842 6.938-12.166 11.708-15.748 4.786-3.581 10.102-5.404 15.274-5.404 3.806.008 7.572.964 11.227 3.108 3.654 2.152 7.219 5.517 10.384 10.52 6.375 10.102 12.631 20.47 19.746 29.954 7.107 9.476 15.105 18.101 25.095 24.42 5.886 3.727 11.997 5.357 17.626 5.34 3.742 0 7.244-.682 10.392-1.774 4.746-1.646 8.697-4.159 11.829-6.818a35.268 35.268 0 0 0 4.063-4.071c1.14-1.382 2.08-2.73 2.827-4.184 3.662-7.211 8.857-14.88 15.306-22.26 9.677-11.082 22.187-21.513 36.538-29.094 14.342-7.589 30.498-12.351 47.668-12.351 28.596-.007 56.164 11.645 76.498 30.781 10.158 9.572 18.494 20.984 24.292 33.688 5.797 12.712 9.05 26.708 9.05 41.573 0 3.509-.177 7.066-.554 10.672-1.518 14.543-4.112 23.072-6.216 28.283-1.052 2.618-1.975 4.392-2.762 5.902-.402.772-.771 1.47-1.149 2.346-.184.433-.369.923-.538 1.542a8.677 8.677 0 0 0-.305 2.256c0 .731.104 1.574.369 2.393.386 1.237 1.14 2.329 1.863 3.052a9.077 9.077 0 0 0 2.04 1.558l.626.361.682.209c1.181.361 2.096.41 2.931.418 1.012 0 1.912-.113 2.843-.265 1.727-.281 3.534-.748 5.501-1.334 3.437-1.02 7.364-2.433 11.371-3.982 11.018-4.248 22.734-9.573 24.669-10.456a13.796 13.796 0 0 1 14.158 2.924c2.016 1.886 3.999 4.055 5.476 6.753 1.47 2.706 2.521 5.919 2.53 10.415-.009 2.164-.266 4.662-.916 7.513z" fill="rgba(0, 0, 0, 1)" stroke="none"/>
  <path d="M294 181.491c-21.875 15.908-7.95 51.691 25.834 31.808-13.91-7.95-25.834-31.808-25.834-31.808z" fill="rgba(0, 0, 0, 1)" stroke="none"/>
  <path d="M346.334 223.674c20.244 34.964 47.861 9.202 40.489-11.042-.001 0-24.79 7.822-40.489 11.042z" fill="rgba(0, 0, 0, 1)" stroke="none"/>
</svg>
</g></svg></g></g>
<!-- /image 36156 -->

<!-- image 53294 -->
<g id="transformed-53294" data-image="53294" transform="translate(47.64128675194331, 98.64128675194334) rotate(6, 50.35871324805669, 50.35871324805666)"><g><svg version="1.1" width="100.71742649611338px" height="100.71742649611332px" viewBox="0 0 100.71742649611338 100.71742649611332"><g id="original-53294"><svg xmlns="http://www.w3.org/2000/svg" id="_x32_" viewBox="0 0 512 512" xmlns:xlink="http://www.w3.org/1999/xlink" version="1.1" preserveAspectRatio="xMidYMid meet">
  <path d="M501.553 219.44a21.064 21.064 0 0 0-21.787-4.379l-45.01 16.794c.07-.233.14-.473.209-.699a120.74 120.74 0 0 0 11.026-50.499c0-66.914-54.25-121.164-121.164-121.164-50.997 0-93.165 37.696-109.548 69.965-3.408 6.717-20.289 21.251-39.117 9.356-18.829-11.887-31.237-33.341-44.599-54.514-17.843-28.246-51.059-19.535-62.441 8.922C42.36 160.12-38.173 202.661 21.551 207.693c35.677 3.012 60.95-16.352 71.355-23.782 10.412-7.431-2.974 26.764 17.842 31.22 20.133 4.309 22.462-20.941 41.066 5.854-24.528 40.134-65.408 65.408-105.922 92.777-41.889 28.301-50.57 56.121 20.436 43.9 30.77-5.303 33.644 1.7 19.574 9.48-13.3 7.36-45.29 20.381-65.283 26.888-19.085 6.219-14.264 36.85 32.843 32.502 36.633-3.378 70.718-4.123 95.223-12.105 19.986-6.506 26.919-.683.155 10.218-59.684 24.318 13.386 53.52 137.337-12.78 46.742-25.002 78.708-52.728 102.909-85.882 4.092 4.79 10.218 7.376 19.326 2.633 22.688-11.81 32.378.497 16.514 14.364-18.611 16.29-16.918 54.918 35.104 21.438C512.059 330.93 510.887 251.5 510.887 251.5c3.967-17.455-3.495-26.571-9.334-32.06zm-216.922-59.452s14.45 28.906 31.314 38.542c-40.949 24.077-57.806-19.271-31.314-38.542zm63.412 51.105c19.023-3.897 49.063-13.378 49.063-13.378 8.922 24.528-24.527 55.748-49.063 13.378z" fill="rgba(0, 0, 0, 1)" stroke="none"/>
</svg>
</g></svg></g></g>
<!-- /image 53294 -->

<!-- image 13349 -->
<g id="transformed-13349" data-image="13349" transform="translate(154.80797594797355, 110.80797594797352) rotate(4, 65.19202405202647, 65.19202405202648)"><g><svg version="1.1" width="130.38404810405294px" height="130.38404810405297px" viewBox="0 0 130.38404810405294 130.38404810405297"><g id="original-13349"><svg xmlns="http://www.w3.org/2000/svg" id="_x32_" viewBox="0 0 512 512" xmlns:xlink="http://www.w3.org/1999/xlink" version="1.1" preserveAspectRatio="xMidYMid meet">
  <path d="M507.88 226.131c-2.409-4.385-5.453-7.588-7.942-9.942a26.673 26.673 0 0 0-18.261-7.219c-3.132 0-6.288.554-9.323 1.678l-.225.088-.208.097s-.113.056-.37.16a521.398 521.398 0 0 1-19.12 8.239c-4.064 1.646-8.199 3.228-11.756 4.433 1.084-2.674 2.248-5.975 3.332-10.062 1.502-5.653 2.875-12.801 3.831-21.907.417-4.047.626-8.046.626-12.005.008-16.744-3.686-32.604-10.206-46.905-9.797-21.457-25.906-39.422-45.548-52.046-19.651-12.623-42.874-19.939-66.942-19.939-13.049 0-25.496 2.409-37.044 6.512-17.337 6.152-32.651 16.069-45.219 27.48-12.559 11.42-22.388 24.308-28.708 36.739-.2.41-.899 1.461-1.951 2.562-1.574 1.686-3.935 3.59-6.665 4.971-2.731 1.397-5.798 2.288-9.035 2.288-3.252-.016-6.754-.843-10.761-3.364-8.102-5.108-15.105-12.488-21.682-21.265-6.577-8.753-12.696-18.855-19.161-29.094-4.103-6.504-9.138-11.45-14.727-14.743-5.59-3.284-11.708-4.891-17.747-4.883-8.215 0-16.214 2.9-22.991 7.982-6.77 5.083-12.35 12.351-15.916 21.256-4.819 12.054-10.4 24.364-16.912 34.94-6.496 10.584-13.956 19.345-22.139 24.581-11.355 7.3-19.884 14.551-25.778 21.706-2.947 3.574-5.236 7.14-6.834 10.729C.908 192.797 0 196.459 0 200.105c-.008 3.453.86 6.882 2.538 9.876 1.253 2.249 2.939 4.241 4.931 5.935 2.987 2.554 6.634 4.473 10.801 5.886 4.184 1.405 8.906 2.322 14.19 2.771 1.903.16 3.774.224 5.63.224 8.776 0 16.944-1.718 24.339-4.36 11.114-3.959 20.518-9.966 28.042-15.538 3.758-2.795 7.042-5.477 9.805-7.758.546-.457 1.06-.883 1.574-1.301.248 2.41.489 5.292.835 8.352.313 2.746.723 5.638 1.349 8.504.49 2.16 1.1 4.305 1.935 6.4a25.229 25.229 0 0 0 2.345 4.593c1.446 2.192 3.381 4.273 5.926 5.758 2.521 1.502 5.581 2.305 8.721 2.289 4.666-.008 8.802-.611 12.456-1.157 3.653-.546 6.826-1.003 9.58-.996 2 0 3.774.217 5.566.763.289.08.578.185.868.297-.402.377-.78.787-1.085 1.285v-.008c-14.358 23.24-32.234 37.703-49.62 48.447-8.689 5.365-17.249 9.773-25.15 13.844-7.918 4.08-15.178 7.782-21.361 11.949-9.829 6.649-17.907 13.298-23.778 19.73-2.932 3.228-5.316 6.401-7.075 9.628-.883 1.622-1.598 3.269-2.112 4.963-.506 1.702-.827 3.469-.827 5.284 0 1.382.185 2.795.595 4.168.691 2.408 2.112 4.634 3.943 6.351 1.365 1.285 2.956 2.329 4.666 3.164 2.577 1.26 5.485 2.096 8.784 2.658 3.284.547 6.979.812 11.155.812 7.829 0 17.37-.94 28.973-2.932 4.866-.843 8.906-1.324 12.15-1.542-2.658 1.373-5.934 2.947-9.596 4.61-14.647 6.673-35.486 14.856-49.546 19.426-4.313 1.405-7.967 3.903-10.52 7.179-2.562 3.26-3.983 7.316-3.975 11.452 0 3.429.964 6.89 2.794 10.014 2.746 4.705 7.364 8.616 13.516 11.307 6.159 2.682 13.884 4.208 23.303 4.208 2.851 0 5.847-.136 9.01-.418 17.458-1.614 34.434-2.61 50.15-4.168 8.994-.9 17.57-1.992 25.608-3.51-1.55 1.004-2.971 2.024-4.248 3.084-2.056 1.735-3.766 3.566-5.067 5.662-1.284 2.088-2.168 4.545-2.168 7.195a11.722 11.722 0 0 0 .988 4.73 13.236 13.236 0 0 0 2.2 3.421c1.549 1.742 3.396 3.028 5.444 4.088 3.091 1.574 6.657 2.642 10.808 3.372 4.144.731 8.866 1.1 14.174 1.1 14.038-.007 32.226-2.61 53.86-8.865 21.633-6.264 46.68-16.197 74.24-30.941 22.782-12.182 42.079-25.094 58.662-39.06 14.752-12.431 27.335-25.689 38.329-39.96.056.032.096.057.136.081a18.272 18.272 0 0 0 8.649 2.144c3.758 0 7.644-1.084 11.587-3.14 2.754-1.437 5.204-2.409 7.268-3.011 2.08-.602 3.758-.827 4.962-.827.78 0 1.333.096 1.671.192a3.146 3.146 0 0 1-.065.298c-.201.602-.65 1.558-1.493 2.698-.836 1.149-2.048 2.489-3.67 3.919-3.943 3.461-7.018 7.652-9.17 12.086-2.145 4.457-3.397 9.155-3.414 13.852 0 2.288.314 4.577 1.044 6.801a17.426 17.426 0 0 0 2.433 4.77c1.614 2.232 3.887 4.103 6.553 5.292 2.658 1.205 5.653 1.767 8.841 1.767 4.609-.008 9.661-1.117 15.442-3.348 5.773-2.241 12.279-5.622 19.698-10.392 12.904-8.312 22.581-19.313 29.808-31.054 10.817-17.651 16.238-36.979 19.04-52.527 2.738-15.201 2.947-26.781 2.947-29.68.723-3.381 1.076-6.585 1.076-9.557.018-6.621-1.693-12.218-4.118-16.603zm-9.644 24.124l-.168.747.007.771v.321c.008 2.666-.256 21.506-6.255 43.034-2.996 10.777-7.412 22.204-13.844 32.644-6.416 10.448-14.8 19.883-25.802 26.966-6.858 4.424-12.656 7.396-17.386 9.219-4.714 1.839-8.352 2.498-10.8 2.489-1.518 0-2.578-.241-3.292-.522a3.968 3.968 0 0 1-1.196-.691c-.426-.378-.755-.827-1.044-1.558-.281-.731-.482-1.759-.482-3.011-.008-2.289.691-5.308 2.12-8.255 1.422-2.947 3.542-5.814 6.063-8.007 2.988-2.617 5.308-5.292 6.979-8.086.827-1.406 1.501-2.834 1.975-4.32.465-1.485.746-3.027.746-4.617 0-1.766-.369-3.613-1.164-5.292a11.701 11.701 0 0 0-2.417-3.373c-1.486-1.446-3.284-2.442-5.148-3.06-1.879-.618-3.838-.875-5.87-.883-2.69.008-5.524.466-8.552 1.341-3.011.875-6.223 2.176-9.612 3.943-2.554 1.333-4.385 1.686-5.653 1.686-.442 0-.82-.048-1.181-.121 1.55-2.417 3.51-5.557 5.709-9.266 5.196-8.769 11.677-20.615 16.848-33.19 1.365-3.284-.209-7.034-3.493-8.384-3.285-1.357-7.027.209-8.393 3.493-4.81 11.708-11.025 23.112-16.02 31.519a279.24 279.24 0 0 1-6.248 10.078 128.423 128.423 0 0 1-1.822 2.762 28.34 28.34 0 0 1-.475.716l-.096.136c-11.331 15.506-24.436 29.704-40.224 43.018-15.812 13.314-34.322 25.729-56.445 37.566-26.822 14.334-51.065 23.93-71.751 29.913-20.678 5.99-37.839 8.367-50.286 8.36-4.095 0-7.669-.249-10.656-.699-2.248-.322-4.168-.763-5.701-1.245-2.313-.723-3.742-1.606-4.248-2.08l-.032-.04c.096-.184.256-.45.514-.779.787-1.028 2.449-2.57 5.067-4.232 2.618-1.67 6.159-3.485 10.632-5.308 6.207-2.538 10.721-4.818 14.02-7.002 1.655-1.108 3.02-2.177 4.224-3.501a10.748 10.748 0 0 0 1.67-2.393c.49-.955.94-2.217.94-3.774a7.574 7.574 0 0 0-.442-2.561c-.53-1.494-1.534-2.691-2.49-3.437a8.703 8.703 0 0 0-2.095-1.22c-.996-.41-1.896-.611-2.778-.748a19.202 19.202 0 0 0-2.618-.184c-2.08.008-4.296.273-6.794.755-2.481.497-5.227 1.22-8.206 2.184-10.994 3.598-24.678 5.67-40.015 7.195-15.346 1.518-32.331 2.506-50.062 4.144a85.654 85.654 0 0 1-7.83.378c-5.356 0-9.804-.586-13.394-1.518-5.396-1.397-8.825-3.566-10.793-5.613-.988-1.044-1.614-2.039-2.007-2.971-.402-.923-.562-1.783-.562-2.578.016-1.277.394-2.442 1.245-3.549.876-1.1 2.241-2.16 4.369-2.859 9.836-3.196 22.405-7.926 34.226-12.768 5.894-2.425 11.604-4.875 16.67-7.187 5.075-2.305 9.5-4.457 12.938-6.36 2.834-1.582 5.171-3.156 7.114-4.986.964-.94 1.83-1.944 2.594-3.204.369-.634.707-1.341.964-2.152a8.965 8.965 0 0 0 .434-2.722 8.365 8.365 0 0 0-.61-3.149 8.742 8.742 0 0 0-1.405-2.336c-.996-1.164-2.112-1.919-3.196-2.465-1.63-.82-3.252-1.237-5.01-1.526-1.767-.273-3.678-.393-5.83-.393-4.722.007-10.616.594-18.052 1.871-11.09 1.911-19.996 2.746-26.789 2.746-3.678 0-6.738-.249-9.146-.667-1.8-.305-3.245-.715-4.313-1.132-.802-.321-1.389-.642-1.798-.915-.61-.426-.779-.699-.883-.851-.08-.168-.136-.297-.145-.739 0-.337.064-.867.273-1.566.369-1.229 1.205-2.963 2.61-4.979 2.088-3.019 5.372-6.624 9.652-10.439 4.272-3.83 9.548-7.878 15.595-11.973 5.204-3.518 12.134-7.107 20.044-11.17 11.869-6.111 25.954-13.338 40.015-23.786 14.053-10.456 28.106-24.187 39.822-43.171.096-.153.152-.33.225-.482.265.289.53.586.795.9 2.819 3.308 5.95 7.774 9.364 13.7 1.774 3.067 5.701 4.12 8.784 2.352 3.068-1.774 4.12-5.701 2.346-8.785-3.293-5.71-6.449-10.376-9.556-14.214-4.657-5.75-9.283-9.684-14.109-12.15a29.983 29.983 0 0 0-7.212-2.578c-2.384-.514-4.706-.698-6.93-.698-4.103.008-7.869.618-11.467 1.14-3.598.546-7.035 1.012-10.568 1.012-.626 0-1.076-.08-1.445-.185-.667-.209-1.117-.482-1.719-1.108-.506-.547-1.076-1.398-1.606-2.562-.923-2.031-1.671-4.946-2.176-8.143-.386-2.401-.666-4.954-.907-7.46-.185-1.887-.354-3.726-.538-5.509-.152-1.325-.305-2.602-.514-3.839a32.67 32.67 0 0 0-.602-2.762 16.426 16.426 0 0 0-.723-2.104c-.474-1.068-1.108-2.281-2.393-3.486-.65-.586-1.47-1.164-2.433-1.558a7.817 7.817 0 0 0-3.052-.603 8.804 8.804 0 0 0-3.26.643c-.916.378-1.67.826-2.353 1.316-1.422 1.012-2.9 2.209-4.553 3.558-2.883 2.377-6.272 5.236-10.174 8.215-5.846 4.465-12.833 9.179-20.662 12.72-7.838 3.55-16.462 5.935-25.761 5.935-1.494 0-3.012-.056-4.554-.192-3.95-.33-7.348-.964-10.126-1.808-4.2-1.26-6.93-2.979-8.448-4.609-.763-.827-1.262-1.614-1.598-2.45-.329-.826-.498-1.71-.506-2.786 0-1.502.378-3.405 1.397-5.686 1.502-3.437 4.449-7.653 9.067-12.223 4.594-4.594 10.817-9.548 18.735-14.615 10.584-6.834 19.016-17.113 26.138-28.661 7.115-11.563 12.929-24.484 17.892-36.907 2.738-6.842 6.938-12.166 11.708-15.748 4.786-3.581 10.102-5.404 15.274-5.404 3.806.008 7.572.964 11.227 3.108 3.654 2.152 7.219 5.517 10.384 10.52 6.375 10.102 12.631 20.47 19.746 29.954 7.107 9.476 15.105 18.101 25.095 24.42 5.886 3.727 11.997 5.357 17.626 5.34 3.742 0 7.244-.682 10.392-1.774 4.746-1.646 8.697-4.159 11.829-6.818a35.268 35.268 0 0 0 4.063-4.071c1.14-1.382 2.08-2.73 2.827-4.184 3.662-7.211 8.857-14.88 15.306-22.26 9.677-11.082 22.187-21.513 36.538-29.094 14.342-7.589 30.498-12.351 47.668-12.351 28.596-.007 56.164 11.645 76.498 30.781 10.158 9.572 18.494 20.984 24.292 33.688 5.797 12.712 9.05 26.708 9.05 41.573 0 3.509-.177 7.066-.554 10.672-1.518 14.543-4.112 23.072-6.216 28.283-1.052 2.618-1.975 4.392-2.762 5.902-.402.772-.771 1.47-1.149 2.346-.184.433-.369.923-.538 1.542a8.677 8.677 0 0 0-.305 2.256c0 .731.104 1.574.369 2.393.386 1.237 1.14 2.329 1.863 3.052a9.077 9.077 0 0 0 2.04 1.558l.626.361.682.209c1.181.361 2.096.41 2.931.418 1.012 0 1.912-.113 2.843-.265 1.727-.281 3.534-.748 5.501-1.334 3.437-1.02 7.364-2.433 11.371-3.982 11.018-4.248 22.734-9.573 24.669-10.456a13.796 13.796 0 0 1 14.158 2.924c2.016 1.886 3.999 4.055 5.476 6.753 1.47 2.706 2.521 5.919 2.53 10.415-.009 2.164-.266 4.662-.916 7.513z" fill="rgba(0, 0, 0, 1)" stroke="none"/>
  <path d="M294 181.491c-21.875 15.908-7.95 51.691 25.834 31.808-13.91-7.95-25.834-31.808-25.834-31.808z" fill="rgba(0, 0, 0, 1)" stroke="none"/>
  <path d="M346.334 223.674c20.244 34.964 47.861 9.202 40.489-11.042-.001 0-24.79 7.822-40.489 11.042z" fill="rgba(0, 0, 0, 1)" stroke="none"/>
</svg>
</g></svg></g></g>
<!-- /image 13349 -->

<!-- image 84162 -->
<g id="transformed-84162" data-image="84162" transform="translate(42.89039041781107, -40.109609582188924) rotate(18, 41.10960958218893, 41.109609582188924)"><g><svg version="1.1" width="82.21921916437786px" height="82.21921916437785px" viewBox="0 0 82.21921916437786 82.21921916437785"><g id="original-84162"><svg xmlns="http://www.w3.org/2000/svg" id="_x32_" viewBox="0 0 512 512" xmlns:xlink="http://www.w3.org/1999/xlink" version="1.1" preserveAspectRatio="xMidYMid meet">
  <path d="M501.553 219.44a21.064 21.064 0 0 0-21.787-4.379l-45.01 16.794c.07-.233.14-.473.209-.699a120.74 120.74 0 0 0 11.026-50.499c0-66.914-54.25-121.164-121.164-121.164-50.997 0-93.165 37.696-109.548 69.965-3.408 6.717-20.289 21.251-39.117 9.356-18.829-11.887-31.237-33.341-44.599-54.514-17.843-28.246-51.059-19.535-62.441 8.922C42.36 160.12-38.173 202.661 21.551 207.693c35.677 3.012 60.95-16.352 71.355-23.782 10.412-7.431-2.974 26.764 17.842 31.22 20.133 4.309 22.462-20.941 41.066 5.854-24.528 40.134-65.408 65.408-105.922 92.777-41.889 28.301-50.57 56.121 20.436 43.9 30.77-5.303 33.644 1.7 19.574 9.48-13.3 7.36-45.29 20.381-65.283 26.888-19.085 6.219-14.264 36.85 32.843 32.502 36.633-3.378 70.718-4.123 95.223-12.105 19.986-6.506 26.919-.683.155 10.218-59.684 24.318 13.386 53.52 137.337-12.78 46.742-25.002 78.708-52.728 102.909-85.882 4.092 4.79 10.218 7.376 19.326 2.633 22.688-11.81 32.378.497 16.514 14.364-18.611 16.29-16.918 54.918 35.104 21.438C512.059 330.93 510.887 251.5 510.887 251.5c3.967-17.455-3.495-26.571-9.334-32.06zm-216.922-59.452s14.45 28.906 31.314 38.542c-40.949 24.077-57.806-19.271-31.314-38.542zm63.412 51.105c19.023-3.897 49.063-13.378 49.063-13.378 8.922 24.528-24.527 55.748-49.063 13.378z" fill="rgba(0, 0, 0, 1)" stroke="none"/>
</svg>
</g></svg></g></g>
<!-- /image 84162 -->

<!-- image 71049 -->
<g id="transformed-71049" data-image="71049" transform="translate(121.26786250536298, 51.267862505362984) rotate(317, 29.732137494637012, 29.732137494637012)"><g><svg version="1.1" width="59.464274989274024px" height="59.464274989274024px" viewBox="0 0 59.464274989274024 59.464274989274024"><g id="original-71049"><svg xmlns="http://www.w3.org/2000/svg" id="_x32_" viewBox="0 0 512 512" xmlns:xlink="http://www.w3.org/1999/xlink" version="1.1" preserveAspectRatio="xMidYMid meet">
  <path d="M507.88 226.131c-2.409-4.385-5.453-7.588-7.942-9.942a26.673 26.673 0 0 0-18.261-7.219c-3.132 0-6.288.554-9.323 1.678l-.225.088-.208.097s-.113.056-.37.16a521.398 521.398 0 0 1-19.12 8.239c-4.064 1.646-8.199 3.228-11.756 4.433 1.084-2.674 2.248-5.975 3.332-10.062 1.502-5.653 2.875-12.801 3.831-21.907.417-4.047.626-8.046.626-12.005.008-16.744-3.686-32.604-10.206-46.905-9.797-21.457-25.906-39.422-45.548-52.046-19.651-12.623-42.874-19.939-66.942-19.939-13.049 0-25.496 2.409-37.044 6.512-17.337 6.152-32.651 16.069-45.219 27.48-12.559 11.42-22.388 24.308-28.708 36.739-.2.41-.899 1.461-1.951 2.562-1.574 1.686-3.935 3.59-6.665 4.971-2.731 1.397-5.798 2.288-9.035 2.288-3.252-.016-6.754-.843-10.761-3.364-8.102-5.108-15.105-12.488-21.682-21.265-6.577-8.753-12.696-18.855-19.161-29.094-4.103-6.504-9.138-11.45-14.727-14.743-5.59-3.284-11.708-4.891-17.747-4.883-8.215 0-16.214 2.9-22.991 7.982-6.77 5.083-12.35 12.351-15.916 21.256-4.819 12.054-10.4 24.364-16.912 34.94-6.496 10.584-13.956 19.345-22.139 24.581-11.355 7.3-19.884 14.551-25.778 21.706-2.947 3.574-5.236 7.14-6.834 10.729C.908 192.797 0 196.459 0 200.105c-.008 3.453.86 6.882 2.538 9.876 1.253 2.249 2.939 4.241 4.931 5.935 2.987 2.554 6.634 4.473 10.801 5.886 4.184 1.405 8.906 2.322 14.19 2.771 1.903.16 3.774.224 5.63.224 8.776 0 16.944-1.718 24.339-4.36 11.114-3.959 20.518-9.966 28.042-15.538 3.758-2.795 7.042-5.477 9.805-7.758.546-.457 1.06-.883 1.574-1.301.248 2.41.489 5.292.835 8.352.313 2.746.723 5.638 1.349 8.504.49 2.16 1.1 4.305 1.935 6.4a25.229 25.229 0 0 0 2.345 4.593c1.446 2.192 3.381 4.273 5.926 5.758 2.521 1.502 5.581 2.305 8.721 2.289 4.666-.008 8.802-.611 12.456-1.157 3.653-.546 6.826-1.003 9.58-.996 2 0 3.774.217 5.566.763.289.08.578.185.868.297-.402.377-.78.787-1.085 1.285v-.008c-14.358 23.24-32.234 37.703-49.62 48.447-8.689 5.365-17.249 9.773-25.15 13.844-7.918 4.08-15.178 7.782-21.361 11.949-9.829 6.649-17.907 13.298-23.778 19.73-2.932 3.228-5.316 6.401-7.075 9.628-.883 1.622-1.598 3.269-2.112 4.963-.506 1.702-.827 3.469-.827 5.284 0 1.382.185 2.795.595 4.168.691 2.408 2.112 4.634 3.943 6.351 1.365 1.285 2.956 2.329 4.666 3.164 2.577 1.26 5.485 2.096 8.784 2.658 3.284.547 6.979.812 11.155.812 7.829 0 17.37-.94 28.973-2.932 4.866-.843 8.906-1.324 12.15-1.542-2.658 1.373-5.934 2.947-9.596 4.61-14.647 6.673-35.486 14.856-49.546 19.426-4.313 1.405-7.967 3.903-10.52 7.179-2.562 3.26-3.983 7.316-3.975 11.452 0 3.429.964 6.89 2.794 10.014 2.746 4.705 7.364 8.616 13.516 11.307 6.159 2.682 13.884 4.208 23.303 4.208 2.851 0 5.847-.136 9.01-.418 17.458-1.614 34.434-2.61 50.15-4.168 8.994-.9 17.57-1.992 25.608-3.51-1.55 1.004-2.971 2.024-4.248 3.084-2.056 1.735-3.766 3.566-5.067 5.662-1.284 2.088-2.168 4.545-2.168 7.195a11.722 11.722 0 0 0 .988 4.73 13.236 13.236 0 0 0 2.2 3.421c1.549 1.742 3.396 3.028 5.444 4.088 3.091 1.574 6.657 2.642 10.808 3.372 4.144.731 8.866 1.1 14.174 1.1 14.038-.007 32.226-2.61 53.86-8.865 21.633-6.264 46.68-16.197 74.24-30.941 22.782-12.182 42.079-25.094 58.662-39.06 14.752-12.431 27.335-25.689 38.329-39.96.056.032.096.057.136.081a18.272 18.272 0 0 0 8.649 2.144c3.758 0 7.644-1.084 11.587-3.14 2.754-1.437 5.204-2.409 7.268-3.011 2.08-.602 3.758-.827 4.962-.827.78 0 1.333.096 1.671.192a3.146 3.146 0 0 1-.065.298c-.201.602-.65 1.558-1.493 2.698-.836 1.149-2.048 2.489-3.67 3.919-3.943 3.461-7.018 7.652-9.17 12.086-2.145 4.457-3.397 9.155-3.414 13.852 0 2.288.314 4.577 1.044 6.801a17.426 17.426 0 0 0 2.433 4.77c1.614 2.232 3.887 4.103 6.553 5.292 2.658 1.205 5.653 1.767 8.841 1.767 4.609-.008 9.661-1.117 15.442-3.348 5.773-2.241 12.279-5.622 19.698-10.392 12.904-8.312 22.581-19.313 29.808-31.054 10.817-17.651 16.238-36.979 19.04-52.527 2.738-15.201 2.947-26.781 2.947-29.68.723-3.381 1.076-6.585 1.076-9.557.018-6.621-1.693-12.218-4.118-16.603zm-9.644 24.124l-.168.747.007.771v.321c.008 2.666-.256 21.506-6.255 43.034-2.996 10.777-7.412 22.204-13.844 32.644-6.416 10.448-14.8 19.883-25.802 26.966-6.858 4.424-12.656 7.396-17.386 9.219-4.714 1.839-8.352 2.498-10.8 2.489-1.518 0-2.578-.241-3.292-.522a3.968 3.968 0 0 1-1.196-.691c-.426-.378-.755-.827-1.044-1.558-.281-.731-.482-1.759-.482-3.011-.008-2.289.691-5.308 2.12-8.255 1.422-2.947 3.542-5.814 6.063-8.007 2.988-2.617 5.308-5.292 6.979-8.086.827-1.406 1.501-2.834 1.975-4.32.465-1.485.746-3.027.746-4.617 0-1.766-.369-3.613-1.164-5.292a11.701 11.701 0 0 0-2.417-3.373c-1.486-1.446-3.284-2.442-5.148-3.06-1.879-.618-3.838-.875-5.87-.883-2.69.008-5.524.466-8.552 1.341-3.011.875-6.223 2.176-9.612 3.943-2.554 1.333-4.385 1.686-5.653 1.686-.442 0-.82-.048-1.181-.121 1.55-2.417 3.51-5.557 5.709-9.266 5.196-8.769 11.677-20.615 16.848-33.19 1.365-3.284-.209-7.034-3.493-8.384-3.285-1.357-7.027.209-8.393 3.493-4.81 11.708-11.025 23.112-16.02 31.519a279.24 279.24 0 0 1-6.248 10.078 128.423 128.423 0 0 1-1.822 2.762 28.34 28.34 0 0 1-.475.716l-.096.136c-11.331 15.506-24.436 29.704-40.224 43.018-15.812 13.314-34.322 25.729-56.445 37.566-26.822 14.334-51.065 23.93-71.751 29.913-20.678 5.99-37.839 8.367-50.286 8.36-4.095 0-7.669-.249-10.656-.699-2.248-.322-4.168-.763-5.701-1.245-2.313-.723-3.742-1.606-4.248-2.08l-.032-.04c.096-.184.256-.45.514-.779.787-1.028 2.449-2.57 5.067-4.232 2.618-1.67 6.159-3.485 10.632-5.308 6.207-2.538 10.721-4.818 14.02-7.002 1.655-1.108 3.02-2.177 4.224-3.501a10.748 10.748 0 0 0 1.67-2.393c.49-.955.94-2.217.94-3.774a7.574 7.574 0 0 0-.442-2.561c-.53-1.494-1.534-2.691-2.49-3.437a8.703 8.703 0 0 0-2.095-1.22c-.996-.41-1.896-.611-2.778-.748a19.202 19.202 0 0 0-2.618-.184c-2.08.008-4.296.273-6.794.755-2.481.497-5.227 1.22-8.206 2.184-10.994 3.598-24.678 5.67-40.015 7.195-15.346 1.518-32.331 2.506-50.062 4.144a85.654 85.654 0 0 1-7.83.378c-5.356 0-9.804-.586-13.394-1.518-5.396-1.397-8.825-3.566-10.793-5.613-.988-1.044-1.614-2.039-2.007-2.971-.402-.923-.562-1.783-.562-2.578.016-1.277.394-2.442 1.245-3.549.876-1.1 2.241-2.16 4.369-2.859 9.836-3.196 22.405-7.926 34.226-12.768 5.894-2.425 11.604-4.875 16.67-7.187 5.075-2.305 9.5-4.457 12.938-6.36 2.834-1.582 5.171-3.156 7.114-4.986.964-.94 1.83-1.944 2.594-3.204.369-.634.707-1.341.964-2.152a8.965 8.965 0 0 0 .434-2.722 8.365 8.365 0 0 0-.61-3.149 8.742 8.742 0 0 0-1.405-2.336c-.996-1.164-2.112-1.919-3.196-2.465-1.63-.82-3.252-1.237-5.01-1.526-1.767-.273-3.678-.393-5.83-.393-4.722.007-10.616.594-18.052 1.871-11.09 1.911-19.996 2.746-26.789 2.746-3.678 0-6.738-.249-9.146-.667-1.8-.305-3.245-.715-4.313-1.132-.802-.321-1.389-.642-1.798-.915-.61-.426-.779-.699-.883-.851-.08-.168-.136-.297-.145-.739 0-.337.064-.867.273-1.566.369-1.229 1.205-2.963 2.61-4.979 2.088-3.019 5.372-6.624 9.652-10.439 4.272-3.83 9.548-7.878 15.595-11.973 5.204-3.518 12.134-7.107 20.044-11.17 11.869-6.111 25.954-13.338 40.015-23.786 14.053-10.456 28.106-24.187 39.822-43.171.096-.153.152-.33.225-.482.265.289.53.586.795.9 2.819 3.308 5.95 7.774 9.364 13.7 1.774 3.067 5.701 4.12 8.784 2.352 3.068-1.774 4.12-5.701 2.346-8.785-3.293-5.71-6.449-10.376-9.556-14.214-4.657-5.75-9.283-9.684-14.109-12.15a29.983 29.983 0 0 0-7.212-2.578c-2.384-.514-4.706-.698-6.93-.698-4.103.008-7.869.618-11.467 1.14-3.598.546-7.035 1.012-10.568 1.012-.626 0-1.076-.08-1.445-.185-.667-.209-1.117-.482-1.719-1.108-.506-.547-1.076-1.398-1.606-2.562-.923-2.031-1.671-4.946-2.176-8.143-.386-2.401-.666-4.954-.907-7.46-.185-1.887-.354-3.726-.538-5.509-.152-1.325-.305-2.602-.514-3.839a32.67 32.67 0 0 0-.602-2.762 16.426 16.426 0 0 0-.723-2.104c-.474-1.068-1.108-2.281-2.393-3.486-.65-.586-1.47-1.164-2.433-1.558a7.817 7.817 0 0 0-3.052-.603 8.804 8.804 0 0 0-3.26.643c-.916.378-1.67.826-2.353 1.316-1.422 1.012-2.9 2.209-4.553 3.558-2.883 2.377-6.272 5.236-10.174 8.215-5.846 4.465-12.833 9.179-20.662 12.72-7.838 3.55-16.462 5.935-25.761 5.935-1.494 0-3.012-.056-4.554-.192-3.95-.33-7.348-.964-10.126-1.808-4.2-1.26-6.93-2.979-8.448-4.609-.763-.827-1.262-1.614-1.598-2.45-.329-.826-.498-1.71-.506-2.786 0-1.502.378-3.405 1.397-5.686 1.502-3.437 4.449-7.653 9.067-12.223 4.594-4.594 10.817-9.548 18.735-14.615 10.584-6.834 19.016-17.113 26.138-28.661 7.115-11.563 12.929-24.484 17.892-36.907 2.738-6.842 6.938-12.166 11.708-15.748 4.786-3.581 10.102-5.404 15.274-5.404 3.806.008 7.572.964 11.227 3.108 3.654 2.152 7.219 5.517 10.384 10.52 6.375 10.102 12.631 20.47 19.746 29.954 7.107 9.476 15.105 18.101 25.095 24.42 5.886 3.727 11.997 5.357 17.626 5.34 3.742 0 7.244-.682 10.392-1.774 4.746-1.646 8.697-4.159 11.829-6.818a35.268 35.268 0 0 0 4.063-4.071c1.14-1.382 2.08-2.73 2.827-4.184 3.662-7.211 8.857-14.88 15.306-22.26 9.677-11.082 22.187-21.513 36.538-29.094 14.342-7.589 30.498-12.351 47.668-12.351 28.596-.007 56.164 11.645 76.498 30.781 10.158 9.572 18.494 20.984 24.292 33.688 5.797 12.712 9.05 26.708 9.05 41.573 0 3.509-.177 7.066-.554 10.672-1.518 14.543-4.112 23.072-6.216 28.283-1.052 2.618-1.975 4.392-2.762 5.902-.402.772-.771 1.47-1.149 2.346-.184.433-.369.923-.538 1.542a8.677 8.677 0 0 0-.305 2.256c0 .731.104 1.574.369 2.393.386 1.237 1.14 2.329 1.863 3.052a9.077 9.077 0 0 0 2.04 1.558l.626.361.682.209c1.181.361 2.096.41 2.931.418 1.012 0 1.912-.113 2.843-.265 1.727-.281 3.534-.748 5.501-1.334 3.437-1.02 7.364-2.433 11.371-3.982 11.018-4.248 22.734-9.573 24.669-10.456a13.796 13.796 0 0 1 14.158 2.924c2.016 1.886 3.999 4.055 5.476 6.753 1.47 2.706 2.521 5.919 2.53 10.415-.009 2.164-.266 4.662-.916 7.513z" fill="rgba(0, 0, 0, 1)" stroke="none"/>
  <path d="M294 181.491c-21.875 15.908-7.95 51.691 25.834 31.808-13.91-7.95-25.834-31.808-25.834-31.808z" fill="rgba(0, 0, 0, 1)" stroke="none"/>
  <path d="M346.334 223.674c20.244 34.964 47.861 9.202 40.489-11.042-.001 0-24.79 7.822-40.489 11.042z" fill="rgba(0, 0, 0, 1)" stroke="none"/>
</svg>
</g></svg></g></g>
<!-- /image 71049 -->

<!-- image 72059 -->
<g id="transformed-72059" data-image="72059" transform="translate(188.30819398704585, 29.308193987045872) rotate(317, 17.69180601295413, 17.691806012954128)"><g><svg version="1.1" width="35.38361202590826px" height="35.383612025908256px" viewBox="0 0 35.38361202590826 35.383612025908256"><g id="original-72059"><svg xmlns="http://www.w3.org/2000/svg" id="_x32_" viewBox="0 0 512 512" xmlns:xlink="http://www.w3.org/1999/xlink" version="1.1" preserveAspectRatio="xMidYMid meet">
  <path d="M501.553 219.44a21.064 21.064 0 0 0-21.787-4.379l-45.01 16.794c.07-.233.14-.473.209-.699a120.74 120.74 0 0 0 11.026-50.499c0-66.914-54.25-121.164-121.164-121.164-50.997 0-93.165 37.696-109.548 69.965-3.408 6.717-20.289 21.251-39.117 9.356-18.829-11.887-31.237-33.341-44.599-54.514-17.843-28.246-51.059-19.535-62.441 8.922C42.36 160.12-38.173 202.661 21.551 207.693c35.677 3.012 60.95-16.352 71.355-23.782 10.412-7.431-2.974 26.764 17.842 31.22 20.133 4.309 22.462-20.941 41.066 5.854-24.528 40.134-65.408 65.408-105.922 92.777-41.889 28.301-50.57 56.121 20.436 43.9 30.77-5.303 33.644 1.7 19.574 9.48-13.3 7.36-45.29 20.381-65.283 26.888-19.085 6.219-14.264 36.85 32.843 32.502 36.633-3.378 70.718-4.123 95.223-12.105 19.986-6.506 26.919-.683.155 10.218-59.684 24.318 13.386 53.52 137.337-12.78 46.742-25.002 78.708-52.728 102.909-85.882 4.092 4.79 10.218 7.376 19.326 2.633 22.688-11.81 32.378.497 16.514 14.364-18.611 16.29-16.918 54.918 35.104 21.438C512.059 330.93 510.887 251.5 510.887 251.5c3.967-17.455-3.495-26.571-9.334-32.06zm-216.922-59.452s14.45 28.906 31.314 38.542c-40.949 24.077-57.806-19.271-31.314-38.542zm63.412 51.105c19.023-3.897 49.063-13.378 49.063-13.378 8.922 24.528-24.527 55.748-49.063 13.378z" fill="rgba(0, 0, 0, 1)" stroke="none"/>
</svg>
</g></svg></g></g>
<!-- /image 72059 -->
</defs><rect x="0" y="0" width="250" height="250" fill="rgba(255, 255, 255, 0)"></rect><use xlink:href="#transformed-25364" transform="translate(-250, -250)"></use><use xlink:href="#transformed-25364" transform="translate(0, -250)"></use><use xlink:href="#transformed-25364" transform="translate(250, -250)"></use><use xlink:href="#transformed-25364" transform="translate(-250, 0)"></use><use xlink:href="#transformed-25364" transform="translate(0, 0)"></use><use xlink:href="#transformed-25364" transform="translate(250, 0)"></use><use xlink:href="#transformed-25364" transform="translate(-250, 250)"></use><use xlink:href="#transformed-25364" transform="translate(0, 250)"></use><use xlink:href="#transformed-25364" transform="translate(250, 250)"></use><use xlink:href="#transformed-44229" transform="translate(-250, -250)"></use><use xlink:href="#transformed-44229" transform="translate(0, -250)"></use><use xlink:href="#transformed-44229" transform="translate(250, -250)"></use><use xlink:href="#transformed-44229" transform="translate(-250, 0)"></use><use xlink:href="#transformed-44229" transform="translate(0, 0)"></use><use xlink:href="#transformed-44229" transform="translate(250, 0)"></use><use xlink:href="#transformed-44229" transform="translate(-250, 250)"></use><use xlink:href="#transformed-44229" transform="translate(0, 250)"></use><use xlink:href="#transformed-44229" transform="translate(250, 250)"></use><use xlink:href="#transformed-73377" transform="translate(-250, -250)"></use><use xlink:href="#transformed-73377" transform="translate(0, -250)"></use><use xlink:href="#transformed-73377" transform="translate(250, -250)"></use><use xlink:href="#transformed-73377" transform="translate(-250, 0)"></use><use xlink:href="#transformed-73377" transform="translate(0, 0)"></use><use xlink:href="#transformed-73377" transform="translate(250, 0)"></use><use xlink:href="#transformed-73377" transform="translate(-250, 250)"></use><use xlink:href="#transformed-73377" transform="translate(0, 250)"></use><use xlink:href="#transformed-73377" transform="translate(250, 250)"></use><use xlink:href="#transformed-36156" transform="translate(-250, -250)"></use><use xlink:href="#transformed-36156" transform="translate(0, -250)"></use><use xlink:href="#transformed-36156" transform="translate(250, -250)"></use><use xlink:href="#transformed-36156" transform="translate(-250, 0)"></use><use xlink:href="#transformed-36156" transform="translate(0, 0)"></use><use xlink:href="#transformed-36156" transform="translate(250, 0)"></use><use xlink:href="#transformed-36156" transform="translate(-250, 250)"></use><use xlink:href="#transformed-36156" transform="translate(0, 250)"></use><use xlink:href="#transformed-36156" transform="translate(250, 250)"></use><use xlink:href="#transformed-53294" transform="translate(-250, -250)"></use><use xlink:href="#transformed-53294" transform="translate(0, -250)"></use><use xlink:href="#transformed-53294" transform="translate(250, -250)"></use><use xlink:href="#transformed-53294" transform="translate(-250, 0)"></use><use xlink:href="#transformed-53294" transform="translate(0, 0)"></use><use xlink:href="#transformed-53294" transform="translate(250, 0)"></use><use xlink:href="#transformed-53294" transform="translate(-250, 250)"></use><use xlink:href="#transformed-53294" transform="translate(0, 250)"></use><use xlink:href="#transformed-53294" transform="translate(250, 250)"></use><use xlink:href="#transformed-13349" transform="translate(-250, -250)"></use><use xlink:href="#transformed-13349" transform="translate(0, -250)"></use><use xlink:href="#transformed-13349" transform="translate(250, -250)"></use><use xlink:href="#transformed-13349" transform="translate(-250, 0)"></use><use xlink:href="#transformed-13349" transform="translate(0, 0)"></use><use xlink:href="#transformed-13349" transform="translate(250, 0)"></use><use xlink:href="#transformed-13349" transform="translate(-250, 250)"></use><use xlink:href="#transformed-13349" transform="translate(0, 250)"></use><use xlink:href="#transformed-13349" transform="translate(250, 250)"></use><use xlink:href="#transformed-84162" transform="translate(-250, -250)"></use><use xlink:href="#transformed-84162" transform="translate(0, -250)"></use><use xlink:href="#transformed-84162" transform="translate(250, -250)"></use><use xlink:href="#transformed-84162" transform="translate(-250, 0)"></use><use xlink:href="#transformed-84162" transform="translate(0, 0)"></use><use xlink:href="#transformed-84162" transform="translate(250, 0)"></use><use xlink:href="#transformed-84162" transform="translate(-250, 250)"></use><use xlink:href="#transformed-84162" transform="translate(0, 250)"></use><use xlink:href="#transformed-84162" transform="translate(250, 250)"></use><use xlink:href="#transformed-71049" transform="translate(-250, -250)"></use><use xlink:href="#transformed-71049" transform="translate(0, -250)"></use><use xlink:href="#transformed-71049" transform="translate(250, -250)"></use><use xlink:href="#transformed-71049" transform="translate(-250, 0)"></use><use xlink:href="#transformed-71049" transform="translate(0, 0)"></use><use xlink:href="#transformed-71049" transform="translate(250, 0)"></use><use xlink:href="#transformed-71049" transform="translate(-250, 250)"></use><use xlink:href="#transformed-71049" transform="translate(0, 250)"></use><use xlink:href="#transformed-71049" transform="translate(250, 250)"></use><use xlink:href="#transformed-72059" transform="translate(-250, -250)"></use><use xlink:href="#transformed-72059" transform="translate(0, -250)"></use><use xlink:href="#transformed-72059" transform="translate(250, -250)"></use><use xlink:href="#transformed-72059" transform="translate(-250, 0)"></use><use xlink:href="#transformed-72059" transform="translate(0, 0)"></use><use xlink:href="#transformed-72059" transform="translate(250, 0)"></use><use xlink:href="#transformed-72059" transform="translate(-250, 250)"></use><use xlink:href="#transformed-72059" transform="translate(0, 250)"></use><use xlink:href="#transformed-72059" transform="translate(250, 250)"></use></svg>